<svg viewBox="0 0 957 231" xmlns="http://www.w3.org/2000/svg" xmlns:serif="http://www.serif.com/" fill-rule="evenodd" clip-rule="evenodd" stroke-linecap="round" stroke-linejoin="round" stroke-miterlimit="1.5">
  <path d="M84.835 67.081h786.779s75.716 2.59 75.716 75.717-75.716 75.717-75.716 75.717H84.835S9.118 216.19 9.118 142.798s75.717-75.717 75.717-75.717z" fill="none" stroke="#000" stroke-width="16.5"/>
  <g serif:id="O Cogs left">
    <animateTransform attributeName="transform" attributeType="XML" type="rotate" from="0 85 143" to="360 85 143" dur="10s" repeatCount="indefinite"/>
    <circle cx="84.835" cy="142.798" r="75.717" fill="none" stroke="#000" stroke-width="15"/>
    <path d="M109.862 77.091l-.582 1.527M60.39 206.801l-.582 1.528M154.172 131.546l-1.614.26M17.113 153.613l-1.615.26M40.479 88.26l1.033 1.267M128.158 195.892l1.033 1.268" fill="none" stroke="#000" stroke-width="15" stroke-linecap="square" stroke-linejoin="miter"/>
  </g>
  <g serif:id="O Cogs right">
    <animateTransform attributeName="transform" attributeType="XML" type="rotate" from="0 872 143" to="360 872 143" dur="10s" repeatCount="indefinite"/>
    <circle cx="871.614" cy="142.798" r="75.717" fill="none" stroke="#000" stroke-width="15"/>
    <path d="M851.839 75.321l.46 1.569M890.928 208.529l.461 1.569M920.065 91.87l-1.128 1.184M824.29 192.366l-1.128 1.183M803.354 126.193l1.589.385M938.285 158.841l1.589.385" fill="none" stroke="#000" stroke-width="15" stroke-linecap="square" stroke-linejoin="miter"/>
  </g>
  <g fill-rule="nonzero">
    <path d="M265.86 107.869l-27.297 14.538c-4.31-8.823-9.65-13.235-16.016-13.235-3.033 0-5.64 1.003-7.795 3.008-2.156 2.03-3.234 4.587-3.234 7.72 0 5.49 6.367 10.928 19.1 16.317 17.52 7.52 29.326 14.488 35.392 20.854 6.065 6.342 9.123 14.914 9.123 25.692 0 13.81-5.113 25.366-15.29 34.665-9.875 8.798-21.831 13.21-35.842 13.21-23.988 0-40.957-11.706-50.957-35.092l28.198-13.084c3.935 6.868 6.918 11.204 8.973 13.084 4.01 3.71 8.798 5.565 14.387 5.565 11.154 0 16.744-5.089 16.744-15.265 0-5.865-4.312-11.354-12.934-16.443a455.547 455.547 0 0 0-9.976-4.862 723.116 723.116 0 0 1-10.126-4.838c-9.6-4.687-16.367-9.4-20.278-14.086-4.988-5.99-7.494-13.66-7.494-23.06 0-12.457 4.261-22.734 12.783-30.855 8.723-8.121 19.275-12.182 31.707-12.182 18.323 0 31.933 9.45 40.831 28.349zM329.224 114.31v112.217h-33.036V114.31H282.1V83.48h14.087V31.045h33.036V83.48h25.716v30.83h-25.716zM402.639 83.48v143.047h-33.06V83.48h33.06zM364.59 24.002c0-5.79 2.106-10.778 6.317-14.988 4.21-4.211 9.249-6.317 15.139-6.317 5.965 0 11.054 2.106 15.264 6.317 4.211 4.11 6.317 9.173 6.317 15.139 0 5.965-2.106 11.053-6.317 15.264-4.11 4.211-9.148 6.317-15.139 6.317-5.965 0-11.053-2.106-15.264-6.317-4.211-4.21-6.317-9.349-6.317-15.415zM418.63 83.48h33.186v13.21c11.555-11.455 24.564-17.17 39.052-17.17 16.668 0 29.627 5.239 38.926 15.716 8.046 8.898 12.056 23.436 12.056 43.613v87.678h-33.211v-79.883c0-14.111-1.955-23.861-5.865-29.225-3.81-5.49-10.778-8.247-20.854-8.247-10.954 0-18.75 3.635-23.361 10.878-4.487 7.144-6.743 19.626-6.743 37.448v69.029H418.63V83.48zM665.546 83.48h33.186v143.047h-33.186v-14.99c-13.61 12.734-28.249 19.1-43.914 19.1-19.776 0-36.144-7.143-49.052-21.43-12.834-14.588-19.25-32.81-19.25-54.642 0-21.456 6.416-39.302 19.25-53.614 12.808-14.287 28.874-21.43 48.175-21.43 16.643 0 31.556 6.842 44.79 20.553V83.48zm-78.429 71.085c0 13.71 3.66 24.864 11.004 33.487 7.544 8.722 17.044 13.059 28.499 13.059 12.231 0 22.132-4.211 29.677-12.633 7.52-8.698 11.304-19.776 11.304-33.186s-3.785-24.464-11.304-33.186c-7.545-8.522-17.345-12.783-29.376-12.783-11.355 0-20.855 4.31-28.5 12.933-7.544 8.723-11.304 19.476-11.304 32.309zM754.953 114.31v112.217h-33.036V114.31H707.83V83.48h14.087V31.045h33.036V83.48h25.716v30.83h-25.716z"/>
  </g>
  <g serif:id="I Cogs">
    <animateTransform attributeName="transform" attributeType="XML" type="rotate" from="360 386 24" to="0 386 24" dur="10s" repeatCount="indefinite"/>
    <path d="M373.704 42.018l24.885-35.401M364.596 22.389l43.101 3.857M395.274 43.935L377.02 4.7" fill="none" stroke="#000" stroke-width="3.75" stroke-linecap="square" stroke-linejoin="miter"/>
  </g>
  <defs>
    <linearGradient id="skyGradient" x1="100%" y1="100%">
      <stop offset="0%" stop-color="#add8e6" stop-opacity=".5">
        <animate attributeName="stop-color" values="lightblue;blue;red;red;black;red;red;purple;lightblue" dur="14s" repeatCount="indefinite"/>
      </stop>
      <stop offset="100%" stop-color="#add8e6" stop-opacity=".5">
        <animate attributeName="stop-color" values="lightblue;orange;purple;purple;black;purple;purple;blue;lightblue" dur="14s" repeatCount="indefinite"/>
        <animate attributeName="offset" values=".95;.80;.60;.40;.20;0;.20;.40;.60;.80;.95" dur="14s" repeatCount="indefinite"/>
      </stop>
    </linearGradient>
  </defs>
</svg>
