<?xml version="1.0" encoding="UTF-8" standalone="no"?><!DOCTYPE svg PUBLIC "-//W3C//DTD SVG 1.1//EN" "http://www.w3.org/Graphics/SVG/1.1/DTD/svg11.dtd"><svg width="100%" height="100%" viewBox="0 0 717 176" version="1.1" xmlns="http://www.w3.org/2000/svg" xmlns:xlink="http://www.w3.org/1999/xlink" xml:space="preserve" xmlns:serif="http://www.serif.com/" style="fill-rule:evenodd;clip-rule:evenodd;stroke-linecap:round;stroke-linejoin:round;stroke-miterlimit:1.5;"><g id="O-Cogs-left" serif:id="O Cogs left"><circle cx="62.975" cy="112.859" r="56.788" style="fill:#fff;fill-opacity:0;stroke:#000;stroke-width:11.25px;"/><path d="M81.745,63.578l-0.436,1.146" style="fill:none;stroke:#000;stroke-width:11.25px;stroke-linecap:square;stroke-linejoin:miter;"/><path d="M44.641,160.861l-0.436,1.146" style="fill:none;stroke:#000;stroke-width:11.25px;stroke-linecap:square;stroke-linejoin:miter;"/><path d="M114.978,104.42l-1.211,0.195" style="fill:none;stroke:#000;stroke-width:11.25px;stroke-linecap:square;stroke-linejoin:miter;"/><path d="M12.184,120.97l-1.212,0.195" style="fill:none;stroke:#000;stroke-width:11.25px;stroke-linecap:square;stroke-linejoin:miter;"/><path d="M29.708,71.955l0.775,0.95" style="fill:none;stroke:#000;stroke-width:11.25px;stroke-linecap:square;stroke-linejoin:miter;"/><path d="M95.467,152.679l0.775,0.951" style="fill:none;stroke:#000;stroke-width:11.25px;stroke-linecap:square;stroke-linejoin:miter;"/></g><g id="O-Cogs-right" serif:id="O Cogs right"><circle cx="653.06" cy="112.859" r="56.788" style="fill:#fff;fill-opacity:0;stroke:#000;stroke-width:11.25px;"/><path d="M638.228,62.251l0.345,1.177" style="fill:none;stroke:#000;stroke-width:11.25px;stroke-linecap:square;stroke-linejoin:miter;"/><path d="M667.545,162.157l0.346,1.177" style="fill:none;stroke:#000;stroke-width:11.25px;stroke-linecap:square;stroke-linejoin:miter;"/><path d="M689.398,74.663l-0.846,0.888" style="fill:none;stroke:#000;stroke-width:11.25px;stroke-linecap:square;stroke-linejoin:miter;"/><path d="M617.566,150.035l-0.846,0.887" style="fill:none;stroke:#000;stroke-width:11.25px;stroke-linecap:square;stroke-linejoin:miter;"/><path d="M601.864,100.405l1.192,0.289" style="fill:none;stroke:#000;stroke-width:11.25px;stroke-linecap:square;stroke-linejoin:miter;"/><path d="M703.063,124.891l1.192,0.289" style="fill:none;stroke:#000;stroke-width:11.25px;stroke-linecap:square;stroke-linejoin:miter;"/></g><g><path d="M198.743,79.963l-20.471,10.929c-3.234,-6.633 -7.238,-9.949 -12.013,-9.949c-2.274,0 -4.23,0.753 -5.846,2.261c-1.617,1.526 -2.425,3.448 -2.425,5.804c0,4.127 4.775,8.216 14.324,12.267c13.141,5.653 21.995,10.892 26.544,15.678c4.549,4.768 6.843,11.212 6.843,19.315c0,10.383 -3.835,19.07 -11.467,26.061c-7.407,6.615 -16.374,9.931 -26.883,9.931c-17.99,0 -30.717,-8.8 -38.217,-26.381l21.148,-9.837c2.952,5.163 5.189,8.423 6.73,9.837c3.008,2.789 6.599,4.183 10.791,4.183c8.365,0 12.557,-3.825 12.557,-11.476c0,-4.409 -3.233,-8.536 -9.7,-12.361c-2.5,-1.263 -4.982,-2.469 -7.482,-3.656c-2.5,-1.168 -5.038,-2.393 -7.595,-3.637c-7.199,-3.524 -12.275,-7.066 -15.208,-10.59c-3.741,-4.504 -5.621,-10.27 -5.621,-17.337c0,-9.365 3.196,-17.091 9.588,-23.196c6.542,-6.106 14.456,-9.159 23.78,-9.159c13.742,0 23.95,7.105 30.623,21.313Z" style="fill-rule:nonzero;"/><path d="M246.267,84.743l0,84.162l-24.777,0l0,-84.162l-10.565,0l0,-23.122l10.565,0l0,-39.327l24.777,0l0,39.327l19.287,0l0,23.122l-19.287,0Z" style="fill-rule:nonzero;"/><path d="M301.328,61.621l0,107.284l-24.795,0l0,-107.284l24.795,0Zm-28.536,-44.61c0,-4.342 1.579,-8.083 4.737,-11.241c3.158,-3.159 6.937,-4.738 11.354,-4.738c4.475,0 8.291,1.579 11.449,4.738c3.158,3.083 4.737,6.88 4.737,11.354c0,4.474 -1.579,8.29 -4.737,11.448c-3.083,3.159 -6.862,4.738 -11.355,4.738c-4.474,0 -8.29,-1.579 -11.448,-4.738c-3.158,-3.158 -4.737,-7.012 -4.737,-11.561Z" style="fill-rule:nonzero;"/><path d="M313.322,61.621l24.889,0l0,9.907c8.667,-8.591 18.423,-12.878 29.289,-12.878c12.501,0 22.22,3.929 29.194,11.787c6.035,6.674 9.042,17.577 9.042,32.71l0,65.758l-24.908,0l0,-59.912c0,-10.583 -1.466,-17.896 -4.399,-21.919c-2.857,-4.117 -8.083,-6.185 -15.64,-6.185c-8.215,0 -14.062,2.726 -17.521,8.159c-3.365,5.358 -5.057,14.719 -5.057,28.085l0,51.772l-24.889,0l0,-107.284Z" style="fill-rule:nonzero;"/><path d="M498.508,61.621l24.89,0l0,107.284l-24.89,0l0,-11.242c-10.207,9.55 -21.186,14.325 -32.935,14.325c-14.832,0 -27.108,-5.358 -36.789,-16.073c-9.625,-10.941 -14.438,-24.607 -14.438,-40.981c0,-16.092 4.813,-29.477 14.438,-40.211c9.606,-10.715 21.656,-16.073 36.131,-16.073c12.482,0 23.668,5.132 33.593,15.415l0,-12.444Zm-58.821,53.313c0,10.283 2.745,18.648 8.253,25.115c5.658,6.542 12.783,9.794 21.374,9.794c9.174,0 16.599,-3.158 22.258,-9.474c5.639,-6.524 8.478,-14.833 8.478,-24.89c0,-10.057 -2.839,-18.348 -8.478,-24.89c-5.659,-6.391 -13.009,-9.587 -22.033,-9.587c-8.515,0 -15.64,3.234 -21.374,9.7c-5.658,6.542 -8.478,14.607 -8.478,24.232Z" style="fill-rule:nonzero;"/><path d="M565.563,84.743l0,84.162l-24.776,0l0,-84.162l-10.565,0l0,-23.122l10.565,0l0,-39.327l24.776,0l0,39.327l19.288,0l0,23.122l-19.288,0Z" style="fill-rule:nonzero;"/></g><g id="I-Cogs" serif:id="I Cogs"><path d="M279.627,30.524l18.664,-26.551" style="fill:none;stroke:#000;stroke-width:2.81px;stroke-linecap:square;stroke-linejoin:miter;"/><path d="M272.796,15.802l32.326,2.893" style="fill:none;stroke:#000;stroke-width:2.81px;stroke-linecap:square;stroke-linejoin:miter;"/><path d="M295.805,31.961l-13.691,-29.426" style="fill:none;stroke:#000;stroke-width:2.81px;stroke-linecap:square;stroke-linejoin:miter;"/></g></svg>